<svg version="1.1" xmlns="http://www.w3.org/2000/svg" xmlns:xlink="http://www.w3.org/1999/xlink" x="0px" y="0px" viewBox="0 0 184 36" style="enable-background:new 0 0 184 36;" xml:space="preserve">
   <g>
      <path style="fill: #0079fd;" class="st0" d="M61.6,12c-2.9,0-5.4,2.1-5.8,4.9H-0.5v2h56.3c0.5,2.8,2.9,4.9,5.8,4.9c3.3,0,5.9-2.7,5.9-5.9
         C67.5,14.7,64.9,12,61.6,12z"></path>
      <path class="st0" style="fill: #0079fd;" d="M183.9,16.9h-56.8c-0.5-2.8-2.9-4.9-5.8-4.9c-3.3,0-5.9,2.7-5.9,5.9c0,3.3,2.7,5.9,5.9,5.9
         c2.9,0,5.4-2.1,5.8-4.9h56.8V16.9z"></path>
      <path class="st0" style="fill: #0079fd;" d="M105.1,10L105.1,10C105.1,10,105.1,9.9,105.1,10c0-0.1,0-0.1,0-0.2c0,0,0-0.1,0-0.1c0,0,0,0,0,0
         c0,0,0-0.1,0-0.1c0,0,0-0.1,0-0.1c0,0,0,0,0,0c0,0,0-0.1-0.1-0.1c0,0,0,0,0,0c0,0,0-0.1,0-0.1c0,0,0,0,0,0c0,0,0,0,0,0
         c0,0-0.1-0.1-0.1-0.1c0,0,0,0,0,0c0,0-0.1-0.1-0.1-0.1c0,0-0.1,0-0.1-0.1c-0.1,0-0.1-0.1-0.2-0.1c0,0,0,0,0,0L92.3,1.1
         c0,0-0.1,0-0.1,0C92.1,1,92.1,1,92,1c0,0-0.1,0-0.1,0c0,0-0.1,0-0.1,0c0,0-0.1,0-0.1,0c0,0-0.1,0-0.1,0s-0.1,0-0.1,0
         c0,0-0.1,0-0.1,0c0,0-0.1,0-0.1,0c0,0-0.1,0-0.1,0c0,0-0.1,0-0.1,0.1c0,0-0.1,0-0.1,0L78.5,8.7c0,0,0,0,0,0c0,0,0,0,0,0
         c0,0,0,0,0,0c0,0-0.1,0.1-0.1,0.1c0,0-0.1,0-0.1,0.1c0,0,0,0,0,0c0,0,0,0,0,0.1c0,0,0,0,0,0.1c0,0-0.1,0.1-0.1,0.1c0,0,0,0,0,0
         c0,0,0,0,0,0c0,0,0,0.1,0,0.1c0,0,0,0,0,0c0,0,0,0.1-0.1,0.1c0,0,0,0,0,0c0,0,0,0.1,0,0.1c0,0,0,0.1,0,0.1c0,0,0,0,0,0
         c0,0,0,0.1,0,0.1c0,0,0,0.1,0,0.1c0,0,0,0,0,0v15.8c0,0,0,0,0,0c0,0.1,0,0.1,0,0.2c0,0,0,0.1,0,0.1c0,0,0,0.1,0,0.1
         c0,0,0,0.1,0,0.1c0,0,0,0.1,0.1,0.1c0,0,0,0.1,0.1,0.1c0,0,0.1,0.1,0.1,0.1c0,0,0.1,0.1,0.1,0.1c0,0,0.1,0.1,0.1,0.1
         c0,0,0.1,0.1,0.1,0.1c0,0,0,0,0,0l12.2,7.6c0,0,0,0,0,0c0,0,0.1,0,0.1,0c0.1,0,0.1,0.1,0.2,0.1c0,0,0,0,0.1,0c0,0,0,0,0,0
         c0.1,0,0.2,0,0.3,0c0,0,0,0,0,0c0,0,0,0,0,0c0,0,0,0,0,0s0,0,0,0c0,0,0,0,0,0c0,0,0,0,0,0c0.1,0,0.2,0,0.3,0c0,0,0,0,0,0
         c0,0,0,0,0.1,0c0.1,0,0.1,0,0.2-0.1c0,0,0.1,0,0.1,0c0,0,0,0,0,0l12.2-7.6c0,0,0,0,0,0c0,0,0.1-0.1,0.1-0.1c0,0,0.1-0.1,0.1-0.1
         c0,0,0.1-0.1,0.1-0.1c0,0,0.1-0.1,0.1-0.1c0,0,0.1-0.1,0.1-0.1c0,0,0-0.1,0.1-0.1c0,0,0-0.1,0-0.1c0,0,0-0.1,0-0.1c0,0,0-0.1,0-0.1
         c0-0.1,0-0.1,0-0.2c0,0,0,0,0,0V10C105.1,10,105.1,10,105.1,10z M91.5,4.1l9.4,5.9l-9.4,6.1L82.1,10L91.5,4.1z M80.8,12.7l9.2,6
         v11.9l-9.2-5.7V12.7z M93,18.7l9.2-6v12.2L93,30.7V18.7z"></path>
   </g>
</svg>
