<svg version="1.1" xmlns="http://www.w3.org/2000/svg" xmlns:xlink="http://www.w3.org/1999/xlink" x="0px" y="0px" viewBox="0 0 1600 163" style="enable-background:new 0 0 1600 163;" xml:space="preserve" preserveAspectRatio="none">
   <path style="fill:#fff" class="st0 whitepath" d="M535.6,162.5H1600V22.8c-15.9,14.2-27.9,32.7-34.4,53.6c-13.1-13-31.1-21-50.9-21c-13.5,0-26.1,3.7-36.9,10.1
      c-21-34.2-58.6-56.9-101.6-56.9c-48.2,0-89.7,28.6-108.5,69.8c-3.8-1.6-7.8-3-11.8-4.3c-8.2-3.5-17.2-5.4-26.6-5.4
      c-1.9,0-3.9,0.1-5.8,0.2c-0.8,0-1.6,0-2.4,0c-1.2,0-2.5,0-3.7,0.1c0.9-3.3,1.4-6.8,1.4-10.4c0-22.4-18.1-40.5-40.5-40.5
      c-19.6,0-36,14-39.7,32.5c-3.2-1-6.5-1.6-10-1.6c-10.4,0-19.7,4.9-25.6,12.6c-12.7-11.4-29.5-18.3-47.9-18.3
      c-36.7,0-67,27.6-71.2,63.1c-10.7-15.2-28.4-25.2-48.5-25.2c-9.4,0-18.3,2.2-26.2,6.1c-20.6-36-59.4-60.3-103.9-60.3
      c-54.1,0-99.9,36-114.6,85.3c-5.1-9.8-15.3-16.6-27.2-16.6c-12.7,0-23.7,7.8-28.2,18.9c-12.1-9.2-27.2-14.7-43.5-14.7
      c-29.2,0-54.4,17.5-65.6,42.6c-8-10.5-19.7-17.9-33.2-20.3c-11.9-23.2-36-39.2-63.9-39.2c-12,0-23.3,3-33.3,8.2
      c-12.4-19.9-30.1-36.2-51.1-46.9c-17.6-10.2-38-16.1-59.8-16.1c-47,0-87.6,27.2-107,66.7c-4.7-0.8-9.4-1.2-14.3-1.2
      c-23.8,0-45.3,9.6-60.9,25.1C80.8,90.2,46.5,71.8,7.8,71.8c-2.6,0-5.2,0.1-7.8,0.3v90.4h431.7H535.6z"></path>
</svg>
