<?xml version="1.0" encoding="UTF-8"?>
<svg width="236px" height="236px" viewBox="0 0 236 236" version="1.1" xmlns="http://www.w3.org/2000/svg" xmlns:xlink="http://www.w3.org/1999/xlink">
    <!-- Generator: Sketch 51 (57462) - http://www.bohemiancoding.com/sketch -->
    <title>OKMC</title>
    <desc>Created with Sketch.</desc>
    <defs>
        <linearGradient x1="50%" y1="19.5441946%" x2="50.9884701%" y2="72.26662%" id="linearGradient-1">
            <stop stop-color="#FFFFFF" stop-opacity="0.5" offset="0%"></stop>
            <stop stop-color="#000000" stop-opacity="0.5" offset="100%"></stop>
        </linearGradient>
        <circle id="path-2" cx="118" cy="118" r="118"></circle>
        <filter x="-3.9%" y="-6.8%" width="107.8%" height="118.9%" filterUnits="objectBoundingBox" id="filter-3">
            <feOffset dx="0" dy="2" in="SourceAlpha" result="shadowOffsetOuter1"></feOffset>
            <feGaussianBlur stdDeviation="2" in="shadowOffsetOuter1" result="shadowBlurOuter1"></feGaussianBlur>
            <feColorMatrix values="0 0 0 0 0   0 0 0 0 0   0 0 0 0 0  0 0 0 0.2 0" type="matrix" in="shadowBlurOuter1" result="shadowMatrixOuter1"></feColorMatrix>
            <feMerge>
                <feMergeNode in="shadowMatrixOuter1"></feMergeNode>
                <feMergeNode in="SourceGraphic"></feMergeNode>
            </feMerge>
        </filter>
    </defs>
    <g id="Page-1" stroke="none" stroke-width="1" fill="none" fill-rule="evenodd">
        <g id="OKMC" fill-rule="nonzero">
            <g id="Oval">
                <use fill="#EFAF36" xlink:href="#path-2"></use>
                <circle stroke-opacity="0.1" stroke="#000000" stroke-width="9" stroke-linejoin="square" fill-opacity="0.2" fill="url(#linearGradient-1)" fill-rule="evenodd" cx="118" cy="118" r="113.5"></circle>
            </g>
            <g id="Group-2" filter="url(#filter-3)" transform="translate(29.000000, 84.000000)" fill="#FFFFFF">
                <polygon id="Path-3" points="109 72 112.587293 72 112.587293 3.99354992 118.341732 3.99354992 118.341732 72 121.66999 72 121.66999 10.2801043 144.901902 59.1827365 167.096538 11.189566 167.884436 72 180 72 180 0.803035333 176.331474 0.803035333 176.331474 68.4577662 171.768824 68.4577662 171.768824 0.803035333 167.096538 0.803035333 144.901902 49.4945222 121.66999 0 109 0"></polygon>
                <polygon id="Path-4" points="57 1 57 72 60.4235519 72 60.4235519 36.5 71.4030816 36.5 95.6748565 72 101 72 75.7009877 34.7255541 98.7720287 1 93.9038169 1 71.4030816 33.3236139 60.4235519 33.3236139 60.4235519 1"></polygon>
                <polygon id="Path-5" points="49 72 53 72 53 1 49 1"></polygon>
                <path d="M38.9033921,13.3580089 L38.9450059,13.3580089 L38.9450059,13.7221723 C38.9814499,14.0935182 39,14.4686723 39,14.8471338 C39,15.2255952 38.9814499,15.6007493 38.9450059,15.9720952 L38.9450059,58.0279048 C38.9814499,58.3992507 39,58.7744048 39,59.1528662 C39,67.3527118 30.2920818,74 19.5503204,74 C8.90466241,74 0.256618053,67.4711224 0.102727071,59.3725747 L0,59.3725747 L0,13.3580089 L0.197248722,13.3580089 C1.1757628,5.85738777 9.46696125,0 19.5503204,0 C29.6336796,0 37.924878,5.85738777 38.9033921,13.3580089 Z M35.5786822,23.2597751 C35.5728136,23.2662783 35.5669384,23.2727777 35.5610565,23.2792733 C35.556913,23.2178975 35.5520444,23.1566522 35.5464565,23.0955414 C35.5677946,22.8621836 35.5786435,22.6268648 35.5786822,22.3898061 L35.5786822,22.387264 C35.5786565,22.2297858 35.5738603,22.0730753 35.5643877,21.9171975 C35.5738603,21.7613196 35.5786565,21.6046091 35.5786822,21.4471309 L35.5786822,21.4445888 C35.5786305,21.1274981 35.5592372,20.8135202 35.5212707,20.5031847 C35.5592372,20.1928492 35.5786305,19.8788714 35.5786822,19.5617806 L35.5786822,19.5592385 C35.5786305,19.2421477 35.5592372,18.9281699 35.5212707,18.6178344 C35.5592372,18.3074989 35.5786305,17.9935211 35.5786822,17.6764303 L35.5786822,17.6738882 C35.5786565,17.51641 35.5738603,17.3596995 35.5643877,17.2038217 C35.5738603,17.0479438 35.5786565,16.8912334 35.5786822,16.7337551 L35.5786822,16.731213 C35.5786305,16.4141223 35.5592372,16.1001444 35.5212707,15.7898089 C35.5592372,15.4794734 35.5786305,15.1654956 35.5786822,14.8484048 L35.5786822,14.8458627 C35.5776851,8.72910173 28.379396,3.77070064 19.5000001,3.77070064 C10.6199891,3.77070064 3.42131781,8.72978866 3.42131781,14.8471338 C3.42131781,15.1646565 3.4407122,15.4790587 3.47872943,15.7898089 C3.4407122,16.1005591 3.42131781,16.4149613 3.42131781,16.7324841 C3.42131781,16.8903901 3.42611431,17.0475245 3.43561241,17.2038217 C3.42611431,17.3601189 3.42131781,17.5172532 3.42131781,17.6751592 C3.42131781,17.992682 3.4407122,18.3070842 3.47872943,18.6178344 C3.4407122,18.9285846 3.42131781,19.2429868 3.42131781,19.5605096 C3.42131781,19.8780323 3.4407122,20.1924345 3.47872943,20.5031847 C3.4407122,20.8139349 3.42131781,21.1283371 3.42131781,21.4458599 C3.42131781,21.6037659 3.42611431,21.7609003 3.43561241,21.9171975 C3.42611431,22.0734946 3.42131781,22.230629 3.42131781,22.388535 C3.42131781,22.6260236 3.43216737,22.8617666 3.45354365,23.0955414 C3.45110303,23.1222325 3.44879963,23.1489493 3.44663393,23.1756913 C3.41972105,23.1454271 3.39295073,23.115083 3.36632371,23.0846596 L3.36632371,50.9153404 C3.38641901,50.89238 3.40659593,50.8694647 3.42685415,50.8465949 C3.42317086,50.9441304 3.42131781,51.0419798 3.42131781,51.1401274 C3.42131781,51.2188783 3.42251081,51.2974373 3.42488502,51.3757962 C3.42251081,51.4541551 3.42131781,51.5327141 3.42131781,51.611465 C3.42131781,51.6902159 3.42251081,51.7687749 3.42488502,51.8471338 C3.42251081,51.9254927 3.42131781,52.0040516 3.42131781,52.0828025 C3.42131781,52.1615535 3.42251081,52.2401124 3.42488502,52.3184713 C3.42251081,52.3968302 3.42131781,52.4753892 3.42131781,52.5541401 C3.42131781,52.632891 3.42251081,52.71145 3.42488502,52.7898089 C3.42251081,52.8681678 3.42131781,52.9467268 3.42131781,53.0254777 C3.42131781,53.1042286 3.42251081,53.1827876 3.42488502,53.2611465 C3.42251081,53.3395054 3.42131781,53.4180644 3.42131781,53.4968153 C3.42131781,53.5755662 3.42251081,53.6541252 3.42488502,53.7324841 C3.42251081,53.810843 3.42131781,53.8894019 3.42131781,53.9681529 C3.42131781,54.0469038 3.42251081,54.1254627 3.42488502,54.2038217 C3.42251081,54.2821806 3.42131781,54.3607395 3.42131781,54.4394904 C3.42131781,54.5182414 3.42251081,54.5968003 3.42488502,54.6751592 C3.42251081,54.7535181 3.42131781,54.8320771 3.42131781,54.910828 C3.42131781,54.9895789 3.42251081,55.0681379 3.42488502,55.1464968 C3.42251081,55.2248557 3.42131781,55.3034147 3.42131781,55.3821656 C3.42131781,55.4609165 3.42251081,55.5394755 3.42488502,55.6178344 C3.42251081,55.6961933 3.42131781,55.7747523 3.42131781,55.8535032 C3.42131781,55.9322541 3.42251081,56.0108131 3.42488502,56.089172 C3.42251081,56.1675309 3.42131781,56.2460898 3.42131781,56.3248408 C3.42131781,56.4035917 3.42251081,56.4821506 3.42488502,56.5605096 C3.42251081,56.6388685 3.42131781,56.7174274 3.42131781,56.7961783 C3.42131781,56.8749293 3.42251081,56.9534882 3.42488502,57.0318471 C3.42251081,57.110206 3.42131781,57.188765 3.42131781,57.2675159 C3.42131781,57.3462668 3.42251081,57.4248258 3.42488502,57.5031847 C3.42251081,57.5815436 3.42131781,57.6601026 3.42131781,57.7388535 C3.42131781,57.8176044 3.42251081,57.8961634 3.42488502,57.9745223 C3.42251081,58.0528812 3.42131781,58.1314402 3.42131781,58.2101911 C3.42131781,58.288942 3.42251081,58.367501 3.42488502,58.4458599 C3.42251081,58.5242188 3.42131781,58.6027777 3.42131781,58.6815287 C3.42131781,64.7988738 10.6199891,69.7579618 19.5000001,69.7579618 C28.379396,69.7579618 35.5776851,64.7995607 35.5786822,58.6827997 L35.5786822,58.6802576 C35.5786694,58.6019324 35.5774765,58.5237972 35.5751151,58.4458599 C35.5774765,58.3679226 35.5786694,58.2897873 35.5786822,58.2114622 L35.5786822,58.20892 C35.5786694,58.1305948 35.5774765,58.0524596 35.5751151,57.9745223 C35.5774765,57.896585 35.5786694,57.8184498 35.5786822,57.7401246 L35.5786822,57.7375824 C35.5786694,57.6592573 35.5774765,57.581122 35.5751151,57.5031847 C35.5774765,57.4252474 35.5786694,57.3471122 35.5786822,57.268787 L35.5786822,57.2662448 C35.5786694,57.1879197 35.5774765,57.1097844 35.5751151,57.0318471 C35.5774765,56.9539098 35.5786694,56.8757746 35.5786822,56.7974494 L35.5786822,56.7949073 C35.5786694,56.7165821 35.5774765,56.6384469 35.5751151,56.5605096 C35.5774765,56.4825722 35.5786694,56.404437 35.5786822,56.3261118 L35.5786822,56.3235697 C35.5786694,56.2452445 35.5774765,56.1671093 35.5751151,56.089172 C35.5774765,56.0112347 35.5786694,55.9330994 35.5786822,55.8547743 L35.5786822,55.8522321 C35.5786694,55.7739069 35.5774765,55.6957717 35.5751151,55.6178344 C35.5774765,55.5398971 35.5786694,55.4617619 35.5786822,55.3834367 L35.5786822,55.3808945 C35.5786694,55.3025694 35.5774765,55.2244341 35.5751151,55.1464968 C35.5774765,55.0685595 35.5786694,54.9904243 35.5786822,54.9120991 L35.5786822,54.9095569 C35.5786694,54.8312318 35.5774765,54.7530966 35.5751151,54.6751592 C35.5774765,54.5972219 35.5786694,54.5190867 35.5786822,54.4407615 L35.5786822,54.4382194 C35.5786694,54.3598942 35.5774765,54.281759 35.5751151,54.2038217 C35.5774765,54.1258843 35.5786694,54.0477491 35.5786822,53.969424 L35.5786822,53.9668818 C35.5786694,53.8885566 35.5774765,53.8104214 35.5751151,53.7324841 C35.5774765,53.6545468 35.5786694,53.5764115 35.5786822,53.4980864 L35.5786822,53.4955442 C35.5786694,53.417219 35.5774765,53.3390838 35.5751151,53.2611465 C35.5774765,53.1832092 35.5786694,53.105074 35.5786822,53.0267488 L35.5786822,53.0242066 C35.5786694,52.9458815 35.5774765,52.8677462 35.5751151,52.7898089 C35.5774765,52.7118716 35.5786694,52.6337364 35.5786822,52.5554112 L35.5786822,52.552869 C35.5786694,52.4745439 35.5774765,52.3964087 35.5751151,52.3184713 C35.5774765,52.240534 35.5786694,52.1623988 35.5786822,52.0840736 L35.5786822,52.0815315 C35.5786694,52.0032063 35.5774765,51.9250711 35.5751151,51.8471338 C35.5774765,51.7691964 35.5786694,51.6910612 35.5786822,51.6127361 L35.5786822,51.6101939 C35.5786694,51.5318687 35.5774765,51.4537335 35.5751151,51.3757962 C35.5774765,51.2978589 35.5786694,51.2197236 35.5786822,51.1413985 L35.5786822,51.1388563 C35.5786598,51.0013515 35.5750002,50.8644321 35.5677661,50.7281413 C35.5714074,50.7321677 35.575046,50.7361956 35.5786822,50.7402249 L35.5786822,23.2597795 Z" id="Combined-Shape"></path>
                <polygon id="Path-6" points="9 66.7466763 9 6.56398856 13 4 13 69"></polygon>
            </g>
        </g>
    </g>
</svg>