<?xml version="1.0" encoding="utf-8"?>
<!-- Generator: Adobe Illustrator 13.0.0, SVG Export Plug-In . SVG Version: 6.00 Build 14948)  -->
<!DOCTYPE svg PUBLIC "-//W3C//DTD SVG 1.1//EN" "http://www.w3.org/Graphics/SVG/1.1/DTD/svg11.dtd">
<svg version="1.1" id="Layer_1" xmlns="http://www.w3.org/2000/svg" xmlns:xlink="http://www.w3.org/1999/xlink" x="0px" y="0px"
	 width="234px" height="234px" viewBox="0 0 234 234" enable-background="new 0 0 234 234" xml:space="preserve">
<g id="Layer_1_1_">
	<title>ALC</title>
	<desc>Created with Sketch.</desc>
	<g id="Page-1">
		<g id="ALC">
			<g id="Oval">
				<g>
					<circle id="path-3" fill="#6213FD" cx="117" cy="117" r="117"/>
				</g>
				<g>
					
						<linearGradient id="path-3_2_" gradientUnits="userSpaceOnUse" x1="-376.8853" y1="2.5835" x2="-376.8754" y2="3.1108" gradientTransform="matrix(234 0 0 234 88307 -559)">
						<stop  offset="0" style="stop-color:#FFFFFF"/>
						<stop  offset="1" style="stop-color:#000000"/>
					</linearGradient>
					<circle id="path-3_1_" fill="url(#path-3_2_)" fill-opacity="0.3" cx="117" cy="117" r="117"/>
				</g>
				
					<linearGradient id="SVGID_1_" gradientUnits="userSpaceOnUse" x1="-376.8154" y1="2.9844" x2="-376.8154" y2="3.4844" gradientTransform="matrix(225 0 0 225 84900.5 -554.5)">
					<stop  offset="0" style="stop-color:#501DF8"/>
					<stop  offset="1" style="stop-color:#511EF9"/>
				</linearGradient>
				<circle fill="url(#SVGID_1_)" stroke="#000000" stroke-width="9" stroke-opacity="0.1" cx="117" cy="117" r="112.5"/>
			</g>
		</g>
	</g>
</g>
<g>
	<path fill="#FFFF00" d="M116.871,16.066c-56.313,0-101.965,45.712-101.965,102.102c0,56.387,45.652,102.101,101.965,102.101
		c56.313,0,101.964-45.714,101.964-102.101C218.835,61.778,173.184,16.066,116.871,16.066z M116.871,202.91
		c-46.74,0-84.631-37.939-84.631-84.742c0-46.804,37.891-84.745,84.631-84.745c46.74,0,84.631,37.941,84.631,84.745
		C201.502,164.971,163.61,202.91,116.871,202.91z"/>
</g>
<rect x="140.995" y="77.106" fill="#FFFF00" width="17.165" height="54.711"/>
<rect x="116.322" y="131.972" fill="#FFFF00" width="17.623" height="17.011"/>
<rect x="91.188" y="112.661" fill="#FFFF00" width="17.625" height="37.547"/>
<rect x="66.668" y="141.934" fill="#FFFF00" width="17.471" height="17.47"/>
</svg>
